PathFileType	4	(X/Y/Z)	/home/nbianco/projects/addbio/data/HamnerRunning2013/Processed/subject20//results/MarkerData/run500.trc
DataRate	CameraRate	NumFrames	NumMarkers	Units	OrigDataRate	OrigDataStartFrame	OrigNumFrames
120.005	120.005	4	42	m	120.005	81	216
Frame#	Time	C7			CLAV			LACR			LASI			LCAL			LFAradius			LFAsuperior			LFAulna			LLEL			LMEL			LMT5			LPSI			LTB1			LTB2			LTB3			LTH1			LTH2			LTH3			LTOE			LUA1			LUA2			LUA3			RACR			RASI			RCAL			RFAradius			RFAsuperior			RFAulna			RLEL			RMEL			RMT5			RPSI			RTB1			RTB2			RTB3			RTH1			RTH2			RTH3			RTOE			RUA1			RUA2			RUA3		
		X1	Y1	Z1	X2	Y2	Z2	X3	Y3	Z3	X4	Y4	Z4	X5	Y5	Z5	X6	Y6	Z6	X7	Y7	Z7	X8	Y8	Z8	X9	Y9	Z9	X10	Y10	Z10	X11	Y11	Z11	X12	Y12	Z12	X13	Y13	Z13	X14	Y14	Z14	X15	Y15	Z15	X16	Y16	Z16	X17	Y17	Z17	X18	Y18	Z18	X19	Y19	Z19	X20	Y20	Z20	X21	Y21	Z21	X22	Y22	Z22	X23	Y23	Z23	X24	Y24	Z24	X25	Y25	Z25	X26	Y26	Z26	X27	Y27	Z27	X28	Y28	Z28	X29	Y29	Z29	X30	Y30	Z30	X31	Y31	Z31	X32	Y32	Z32	X33	Y33	Z33	X34	Y34	Z34	X35	Y35	Z35	X36	Y36	Z36	X37	Y37	Z37	X38	Y38	Z38	X39	Y39	Z39	X40	Y40	Z40	X41	Y41	Z41	X42	Y42	Z42

82	0.775	0.782083	1.44947	-0.36348	0.895991	1.33893	-0.314551	0.840851	1.39849	-0.543545	0.807095	0.93685	-0.495825	0.434073	0.731161	-0.442802	0.8503	1.07547	-0.547016	0.761051	1.15003	-0.684119	0.828216	1.02514	-0.588668	0.703575	1.18635	-0.712122	0.632638	1.17034	-0.659898	0.290104	0.590303	-0.504622	0.629163	0.975702	-0.444704	0.619987	0.45843	-0.457226	0.544289	0.545108	-0.508804	0.473401	0.57805	-0.435544	0.767454	0.789969	-0.538511	0.806986	0.676117	-0.532	0.734147	0.546076	-0.535302	0.306366	0.554976	-0.419628	0.795896	1.34564	-0.60553	0.712167	1.31415	-0.605861	0.759361	1.27117	-0.655045	0.767882	1.39149	-0.174668	0.771125	0.964579	-0.254256	0.693479	0.103331	-0.339916	0.867101	1.11863	-0.0305619	0.706646	1.16059	-0.00104685	0.832285	1.06423	-0.0025706	0.624926	1.17573	-0.00927505	0.594404	1.12556	-0.0774523	0.877484	0.0650957	-0.253514	0.613017	0.982964	-0.358424	0.919347	0.376132	-0.31753	0.869976	0.320144	-0.262279	0.849203	0.208133	-0.336765	0.777419	0.798354	-0.209561	0.883965	0.715471	-0.239723	0.858746	0.571613	-0.241914	0.912076	0.0657325	-0.346171	0.7161	1.30119	-0.101878	0.725777	1.23689	-0.0800349	0.617728	1.23897	-0.0719593
83	0.783333	0.782698	1.44872	-0.361438	0.896429	1.33582	-0.316131	0.836327	1.39706	-0.544157	0.804391	0.933729	-0.494654	0.456472	0.728178	-0.447215	0.840539	1.06373	-0.553201	0.748	1.14979	-0.681061	0.816767	1.01706	-0.598578	0.689981	1.18814	-0.706701	0.622353	1.17028	-0.651507	0.321385	0.578339	-0.507413	0.627479	0.977298	-0.446749	0.650255	0.456933	-0.455701	0.574966	0.540755	-0.510106	0.502221	0.573634	-0.437087	0.771338	0.789369	-0.537529	0.819335	0.67803	-0.530981	0.75712	0.544683	-0.535321	0.336748	0.547065	-0.421004	0.788791	1.34475	-0.604495	0.704281	1.31251	-0.598821	0.748597	1.27154	-0.651774	0.77006	1.38854	-0.172535	0.767655	0.965594	-0.25061	0.653402	0.10412	-0.339671	0.884682	1.11982	-0.0398218	0.723914	1.1521	-0.00488916	0.85389	1.06394	-0.010101	0.641145	1.16183	-0.00960712	0.610585	1.11023	-0.0764065	0.836637	0.0643456	-0.253283	0.611271	0.984534	-0.360399	0.894667	0.366684	-0.315583	0.840374	0.313444	-0.261999	0.814729	0.203501	-0.336944	0.770376	0.795854	-0.208981	0.872291	0.707019	-0.237688	0.840161	0.564267	-0.242573	0.871631	0.0644478	-0.345851	0.721509	1.29348	-0.102282	0.735013	1.2294	-0.0811021	0.627515	1.22534	-0.0719745
84	0.791667	0.783076	1.44885	-0.359997	0.896519	1.33486	-0.317871	0.831244	1.39733	-0.544384	0.801861	0.93294	-0.494647	0.474394	0.722575	-0.452227	0.830321	1.05483	-0.558539	0.735948	1.15212	-0.677507	0.805909	1.01339	-0.607957	0.677191	1.19174	-0.700915	0.612125	1.17137	-0.643214	0.351475	0.561757	-0.509407	0.625838	0.979473	-0.447378	0.681087	0.456893	-0.45355	0.605573	0.53634	-0.51118	0.529765	0.568017	-0.438445	0.774487	0.790163	-0.537001	0.833465	0.682537	-0.529226	0.78211	0.546654	-0.535539	0.366555	0.535051	-0.421832	0.78113	1.34572	-0.603346	0.696541	1.31221	-0.592023	0.737841	1.27355	-0.648545	0.772865	1.38678	-0.171414	0.764249	0.966866	-0.247189	0.612748	0.104806	-0.339389	0.902227	1.1236	-0.0508185	0.741211	1.14527	-0.0100756	0.875728	1.0661	-0.0201376	0.657714	1.15004	-0.0118793	0.628208	1.09742	-0.0779543	0.795381	0.0636152	-0.252921	0.609506	0.986805	-0.360879	0.86662	0.35588	-0.3146	0.808604	0.304881	-0.262355	0.777854	0.197946	-0.337338	0.761773	0.792735	-0.208544	0.858218	0.696978	-0.235075	0.818243	0.556502	-0.243304	0.830457	0.0626662	-0.344531	0.727567	1.28809	-0.103837	0.744618	1.2244	-0.0835225	0.638148	1.21354	-0.0746525
85	0.8	0.782986	1.44957	-0.359332	0.896639	1.33549	-0.319992	0.82566	1.39911	-0.544472	0.799961	0.934348	-0.495047	0.488212	0.713733	-0.457174	0.82037	1.04974	-0.563414	0.724174	1.1562	-0.67479	0.796002	1.01435	-0.616615	0.66458	1.19674	-0.695482	0.601798	1.17365	-0.635478	0.380515	0.54147	-0.511069	0.624103	0.981349	-0.446499	0.711908	0.458585	-0.45104	0.634669	0.532396	-0.51168	0.555392	0.561373	-0.439381	0.777258	0.792387	-0.536779	0.848684	0.690226	-0.526828	0.807872	0.552207	-0.535476	0.395678	0.519126	-0.422446	0.772747	1.34831	-0.602117	0.688628	1.31348	-0.585899	0.726795	1.27706	-0.645522	0.776306	1.38629	-0.17119	0.761077	0.967735	-0.244436	0.571439	0.105501	-0.339209	0.919102	1.12999	-0.0633068	0.758264	1.1402	-0.0164817	0.897205	1.07067	-0.0326382	0.674174	1.14041	-0.0158588	0.646743	1.08738	-0.0821242	0.753534	0.0632468	-0.252358	0.607843	0.989242	-0.360058	0.835586	0.345914	-0.314798	0.775372	0.296834	-0.262909	0.739339	0.193164	-0.337721	0.751484	0.789506	-0.208101	0.842936	0.687532	-0.232528	0.79517	0.549994	-0.243422	0.788388	0.0610403	-0.342292	0.734507	1.28444	-0.106062	0.754574	1.22138	-0.0870304	0.649427	1.20373	-0.0791588
